<?xml version="1.0" encoding="utf-8"?>
<!-- Generator: Adobe Illustrator 26.0.0, SVG Export Plug-In . SVG Version: 6.00 Build 0)  -->
<svg version="1.1" id="Livello_1" xmlns="http://www.w3.org/2000/svg" xmlns:xlink="http://www.w3.org/1999/xlink" x="0px" y="0px"
	 viewBox="0 0 1357.3 1507.4" style="enable-background:new 0 0 1357.3 1507.4;" xml:space="preserve">
<style type="text/css">
	.st0{fill:#1D58BF;}
	.st1{fill:none;stroke:#1D58BF;stroke-width:80;stroke-miterlimit:10;}
	.st2{fill:none;stroke:#1D58BF;stroke-width:40;stroke-miterlimit:10;}
</style>
<g id="Livello_6">
	<path class="st0" d="M1100.9,1086.3l-35.2-144.8l-13-65.8l-105.5-58.1l-95.7-244.9l-54.4-19.2L700,362.9l-33.3,269.7l56.7,191.4
		l-47.8,164.8l79.7,182.5l125.8,94.3l-196.7-9.3l-138.2-188.7l-114.3-18.6l-22.6-91.7L326.4,833l-62.7-81.6l-51.1-17.5l-69.2-68.5
		l-10.5,37c0.4,3.4,0.7,6.8,0.9,10.2c0.7,10.9-0.7,22.1-0.2,33.1c0.1,0.3,0.2,0.6,0.3,0.9c1.6,3.6,3.3,7.2,4.6,10.9
		c1.7,4.8,2,10.3,2.5,15.6c1.4,9.1,2.8,18.2,4.6,27.2c2.3,11.6,3.1,23.3,4.4,35c0.1,0.6,0.2,1.2,0.3,1.8c1.2,2,2.5,4,3.6,6.2
		c1.8,3.9,3.5,7.9,4.9,12c3.7,7.3,8.8,13.7,12.5,20.9c6.9,13.8,7.6,27.3,5,42c-0.4,4.8-0.4,9.6-0.2,14.4c0.8,3.9,1.8,7.9,2.9,11.7
		c5.4,6.1,11,12,15.2,19c5.8,9.7,9.2,20.7,11.3,31.7l-1.3-3.1c1.5,4.1,2.6,8.3,3.2,12.6c6.2,6.1,12.5,11.6,16.7,20
		c4.8,9.1,7.7,19,8.5,29.3c0.2,3.6,0,7.2-0.6,10.7c4,4.7,7.7,9.7,11,14.9c2.4,4,4.3,8.2,6.4,12.3c6.4,3.2,13.4,5.6,19.4,9.6
		c6.4,4.4,12.4,9.4,17.6,15.2c4,4.4,7,9.2,10.3,14c13.6,15.6,30.3,28.8,42.8,45.4c1.2,0.6,2.3,1.3,3.3,2l-0.2-0.2l0.4,0.3
		c0.8,0.5,1.5,1.1,2.3,1.6c8.7,6,18.4,10.3,26.9,16.8c7.7,6,14.5,13,19.4,21.5c1.7,3,3,6.2,4.7,9.3c0.5,0.5,1,0.9,1.5,1.4
		c8.3,5.9,16.7,11.5,24.8,17.8h-0.1l-7.9-6.1c2.7,2,5.3,4.1,7.9,6.1l0.2,0.1l-0.1-0.1c13.8,10.8,26.9,22.3,38.6,35.5
		c7.8,8.7,15.7,18,22,27.8c2.5,3.8,4.7,7.7,7,11.6c5.3,1.7,10.5,3.9,15.4,6.4c4.9,2.8,9.6,6.1,13.9,9.8c3,1.9,6.2,3.6,9.1,5.6
		c5.7,3.8,11.1,8.1,16.3,12.6c4.8,4.2,8.6,9.4,13.1,13.9c2.2,1.2,4.4,2.4,6.7,3.4l-5.7-2.4l0,0c8.7,3.7,17.2,7.6,25.7,11.6
		c10.1,2.4,19.9,4.9,29.1,10.3c5.3,3.2,10.3,7,14.7,11.4c1.9,1.9,3.7,3.9,5.6,5.9c2.4,1.5,4.9,2.9,7.5,4.1
		c5.9,2.3,11.8,4.4,17.6,7.1h80c2.9-4,6.1-7.7,9.8-11c6.2-4.8,7.5-5.8,3.9-3.1c-1.8,1.5-2.2,1.8-1.2,0.8c0.6-0.7,1.3-1.4,2-2
		c2.9-2.7,6-5.2,9.3-7.4c4.8-3.3,10.1-5.8,15.7-7.2c5.3-1.4,10.9-1.3,16.1,0.5c1.7-2,3.4-4,5.1-6c6.3-6.9,15.9-9.2,24.8-7.8
		c0.3-0.3,0.6-0.6,0.9-1c1.1-1.1,2.2-2.2,3.2-3.3c1.9-1.9,3.9-3.8,5.9-5.7c0.7-0.7,1.3-1.3,2-2c7.1-8.6,14.6-16.7,22.3-24.8
		c4.1-4.2,9.5-6.8,15.3-7.4c4.4-3.6,9.1-7,13.9-10.1c6.2-4.1,13-7.4,20.2-8c1.3-1.4,2.7-2.8,4-4.2s6.1-5.1,6.8-7
		c-2.1,2.7-2,2.6,0.1-0.3c0,0.1,0,0.2-0.1,0.3l0.5-0.6c0.9-1.3,1.9-2.6,3-3.8c2-2.1,4.2-3.8,6.7-5.3c0.7-0.4,1.3-0.7,2-1
		c1.9-2.8,3.8-6.2,6.2-8.3l1.2-0.9c0.1-0.2,0.4-0.4,0.7-0.7c1.4-1.8,2.9-3.6,4.6-5.2c6.5-6.2,12.9-8,21.5-9.2c1.2-0.1,2.5-0.1,3.7,0
		c5.8-7.1,12.6-13.4,20-18.9c5.7-11.2,11.5-22.3,18.8-32.4c4.7-6.7,11.1-11.1,18.8-11.8c5.5-9.3,11.5-18.3,18-27
		c4.8-6.4,9.1-13.8,14.6-19.9c2-3.8,4.2-7.5,6.4-11.2c4.4-7.2,9.1-14.6,14.5-21c3.7-4.5,8.4-8.1,13.8-10.3c2.7-3.7,5.5-7.3,8.4-10.8
		c2.1-3.7,5-7,8.3-9.6c0.6-1.1,1.2-2.2,1.8-3.3L1100.9,1086.3z"/>
	<path class="st0" d="M558,1369.9l-3.1-1.3C556,1369.1,557.1,1369.5,558,1369.9L558,1369.9z"/>
	<path class="st0" d="M636.3,1410.9c1.8,1,3.6,2,5.4,2.9c9.9,3.8,20,7.3,28.8,13.5c1.7,1.2,3.2,2.4,4.8,3.6h58.2
		c3.5-7.5,8.4-14.3,14.6-20L636.3,1410.9L636.3,1410.9z"/>
	<path class="st0" d="M1176.7,982.5l-102.2-47.8l-12.9-65.4l-106.4-58.6l-96.1-245.8l-54.9-19.4L700,340.9l-96.7,188.6L510,603.7
		l-27.8,99L328.3,819l-58.5-76.2L218,725.1l-74.6-73.8l-19.9,19.3c3.4,5.7,5.9,11.9,7.2,18.4c0.2,0.7,0.3,1.4,0.4,2.2l12.2-11.8
		l63.9,63.2l50.4,17.3l66.9,87.1l175.1-132.4l27.9-99.3l91.6-72.8l80.9-157.6l90,176.8l53.9,19l95.4,244l104.6,57.6l13.1,66.1
		l112.5,52.7c0.5-1.9,1.1-3.9,1.8-5.7c0.9-2.3,1.9-5.2,3.2-7.9c-0.2,0.2,0-0.6,1.5-3C1176.2,983.8,1176.4,983.1,1176.7,982.5z"/>
	<path class="st1" d="M683.1,71.1c0,0,104.2,21,330.3,79.3c213.6,55.1,288.5,77.1,288.5,77.1s11,220.2-85.9,618.9
		c-78.2,321.8-370,500-533,600.8c-163-100.9-454.8-279-533-600.8C53.2,447.8,64.2,227.5,64.2,227.5s74.9-22,288.5-77.1
		C578.9,92.1,683.1,71.1,683.1,71.1z"/>
	<path class="st2" d="M144.8,705.7c-1.1,1.7-2.2,3.4-3.4,5c-0.4-0.6-1.1-0.7-1.8-0.8c-2.2-0.3-4.2-1.1-6-2.4
		c-3.1-2.4-4.7-6.1-6.7-9.3c-0.6-1-0.8-2.1-0.8-3.3c0-0.6,0-1.3,0-2c-0.1-2.5,0.8-4,2.2-6c1.1-1.6,2.7-2.5,4.2-3.6s4.4-1.4,6.2-1.5
		c0.9,0,1.9-0.2,2.8-0.5c1.5-0.5,1.8-0.5,2.2,1.2c0.5,2.5-0.3,4.2-0.5,6.5C143.1,689.1,143.1,689,144.8,705.7z"/>
</g>
</svg>
